<svg xmlns="http://www.w3.org/2000/svg" viewBox="0 0 1200 750" width="1200" height="750" role="img" aria-label="">
  <defs>
    <linearGradient id="g" x1="0" y1="0" x2="1" y2="1">
      <stop offset="0" stop-color="hsl(183 34% 92%)"/>
      <stop offset="1" stop-color="hsl(205 36% 78%)"/>
    </linearGradient>
    <clipPath id="c"><rect width="1200" height="750"/></clipPath>
  </defs>
  <rect width="1200" height="750" fill="url(#g)"/>
  <g clip-path="url(#c)"><circle cx="529.6" cy="459.1" r="60.0" fill="none" stroke="hsl(183 46% 30%)" stroke-width="2.39" opacity="0.334"/><circle cx="529.6" cy="459.1" r="139.1" fill="none" stroke="hsl(183 46% 30%)" stroke-width="1.49" opacity="0.251"/><circle cx="529.6" cy="459.1" r="258.5" fill="none" stroke="hsl(183 46% 30%)" stroke-width="1.93" opacity="0.304"/><circle cx="529.6" cy="459.1" r="335.8" fill="none" stroke="hsl(183 46% 30%)" stroke-width="2.13" opacity="0.325"/><circle cx="529.6" cy="459.1" r="314.4" fill="none" stroke="hsl(183 46% 30%)" stroke-width="2.08" opacity="0.267"/><circle cx="529.6" cy="459.1" r="387.1" fill="none" stroke="hsl(183 46% 30%)" stroke-width="1.46" opacity="0.177"/><circle cx="529.6" cy="459.1" r="446.6" fill="none" stroke="hsl(183 46% 30%)" stroke-width="2.36" opacity="0.244"/><line x1="172.8" y1="335.1" x2="894.2" y2="374.4" stroke="hsl(183 46% 30%)" stroke-width="2.68" opacity="0.247"/><line x1="541.1" y1="229.8" x2="1090.2" y2="187.8" stroke="hsl(183 46% 30%)" stroke-width="1.48" opacity="0.299"/><line x1="229.5" y1="127.0" x2="907.1" y2="99.1" stroke="hsl(183 46% 30%)" stroke-width="1.48" opacity="0.357"/><circle cx="60.4" cy="466.5" r="2.8" fill="hsl(183 46% 30%)" opacity="0.468"/><circle cx="409.0" cy="204.2" r="6.9" fill="hsl(183 46% 30%)" opacity="0.372"/><circle cx="564.0" cy="396.6" r="5.3" fill="hsl(183 46% 30%)" opacity="0.403"/><circle cx="292.8" cy="167.1" r="5.3" fill="hsl(183 46% 30%)" opacity="0.530"/><circle cx="333.6" cy="569.7" r="7.5" fill="hsl(183 46% 30%)" opacity="0.349"/><circle cx="834.9" cy="714.7" r="6.5" fill="hsl(183 46% 30%)" opacity="0.538"/><circle cx="945.1" cy="739.7" r="5.6" fill="hsl(183 46% 30%)" opacity="0.363"/><circle cx="277.1" cy="384.6" r="3.2" fill="hsl(183 46% 30%)" opacity="0.508"/><circle cx="71.3" cy="456.1" r="6.2" fill="hsl(183 46% 30%)" opacity="0.332"/><circle cx="716.5" cy="578.8" r="3.1" fill="hsl(183 46% 30%)" opacity="0.578"/><circle cx="882.7" cy="458.0" r="7.5" fill="hsl(183 46% 30%)" opacity="0.426"/><circle cx="156.9" cy="262.6" r="5.5" fill="hsl(183 46% 30%)" opacity="0.497"/><circle cx="802.7" cy="390.9" r="2.8" fill="hsl(183 46% 30%)" opacity="0.633"/><circle cx="239.8" cy="354.4" r="4.7" fill="hsl(183 46% 30%)" opacity="0.429"/><circle cx="1073.3" cy="661.3" r="5.3" fill="hsl(183 46% 30%)" opacity="0.502"/></g>
</svg>
