<svg xmlns="http://www.w3.org/2000/svg" viewBox="0 0 1200 750" width="1200" height="750" role="img" aria-label="">
  <defs>
    <linearGradient id="g" x1="0" y1="0" x2="1" y2="1">
      <stop offset="0" stop-color="hsl(244 34% 92%)"/>
      <stop offset="1" stop-color="hsl(266 36% 78%)"/>
    </linearGradient>
    <clipPath id="c"><rect width="1200" height="750"/></clipPath>
  </defs>
  <rect width="1200" height="750" fill="url(#g)"/>
  <g clip-path="url(#c)"><circle cx="444.1" cy="365.6" r="60.0" fill="none" stroke="hsl(244 46% 30%)" stroke-width="1.58" opacity="0.327"/><circle cx="444.1" cy="365.6" r="160.0" fill="none" stroke="hsl(244 46% 30%)" stroke-width="2.07" opacity="0.194"/><circle cx="444.1" cy="365.6" r="222.3" fill="none" stroke="hsl(244 46% 30%)" stroke-width="2.13" opacity="0.270"/><circle cx="444.1" cy="365.6" r="303.7" fill="none" stroke="hsl(244 46% 30%)" stroke-width="2.30" opacity="0.162"/><circle cx="444.1" cy="365.6" r="471.8" fill="none" stroke="hsl(244 46% 30%)" stroke-width="2.35" opacity="0.316"/><circle cx="444.1" cy="365.6" r="444.5" fill="none" stroke="hsl(244 46% 30%)" stroke-width="2.12" opacity="0.357"/><line x1="444.9" y1="608.2" x2="1211.8" y2="630.6" stroke="hsl(244 46% 30%)" stroke-width="2.14" opacity="0.396"/><line x1="196.2" y1="251.9" x2="899.8" y2="273.9" stroke="hsl(244 46% 30%)" stroke-width="1.57" opacity="0.239"/><line x1="86.0" y1="189.5" x2="536.6" y2="215.3" stroke="hsl(244 46% 30%)" stroke-width="2.59" opacity="0.334"/><line x1="202.5" y1="355.2" x2="775.8" y2="367.0" stroke="hsl(244 46% 30%)" stroke-width="2.45" opacity="0.282"/><line x1="10.2" y1="632.1" x2="595.6" y2="619.0" stroke="hsl(244 46% 30%)" stroke-width="2.51" opacity="0.406"/><circle cx="850.8" cy="444.0" r="7.2" fill="hsl(244 46% 30%)" opacity="0.312"/><circle cx="453.6" cy="301.5" r="6.6" fill="hsl(244 46% 30%)" opacity="0.647"/><circle cx="1013.8" cy="402.0" r="3.6" fill="hsl(244 46% 30%)" opacity="0.321"/><circle cx="240.5" cy="343.2" r="4.4" fill="hsl(244 46% 30%)" opacity="0.491"/><circle cx="716.7" cy="0.7" r="5.9" fill="hsl(244 46% 30%)" opacity="0.423"/><circle cx="582.2" cy="605.2" r="7.3" fill="hsl(244 46% 30%)" opacity="0.405"/><circle cx="1129.8" cy="524.2" r="4.0" fill="hsl(244 46% 30%)" opacity="0.333"/><circle cx="1062.4" cy="698.0" r="6.7" fill="hsl(244 46% 30%)" opacity="0.356"/><circle cx="324.6" cy="714.0" r="7.3" fill="hsl(244 46% 30%)" opacity="0.612"/><circle cx="1108.7" cy="456.6" r="5.1" fill="hsl(244 46% 30%)" opacity="0.606"/><circle cx="1099.5" cy="463.0" r="4.1" fill="hsl(244 46% 30%)" opacity="0.386"/><circle cx="755.7" cy="453.8" r="6.6" fill="hsl(244 46% 30%)" opacity="0.569"/></g>
</svg>
