<svg xmlns="http://www.w3.org/2000/svg" viewBox="0 0 1200 750" width="1200" height="750" role="img" aria-label="">
  <defs>
    <linearGradient id="g" x1="0" y1="0" x2="1" y2="1">
      <stop offset="0" stop-color="hsl(26 34% 92%)"/>
      <stop offset="1" stop-color="hsl(48 36% 78%)"/>
    </linearGradient>
    <clipPath id="c"><rect width="1200" height="750"/></clipPath>
  </defs>
  <rect width="1200" height="750" fill="url(#g)"/>
  <g clip-path="url(#c)"><circle cx="674.9" cy="478.8" r="60.0" fill="none" stroke="hsl(26 46% 30%)" stroke-width="1.63" opacity="0.294"/><circle cx="674.9" cy="478.8" r="159.5" fill="none" stroke="hsl(26 46% 30%)" stroke-width="2.32" opacity="0.276"/><circle cx="674.9" cy="478.8" r="233.9" fill="none" stroke="hsl(26 46% 30%)" stroke-width="1.18" opacity="0.187"/><circle cx="674.9" cy="478.8" r="326.3" fill="none" stroke="hsl(26 46% 30%)" stroke-width="1.48" opacity="0.264"/><circle cx="674.9" cy="478.8" r="305.8" fill="none" stroke="hsl(26 46% 30%)" stroke-width="1.56" opacity="0.240"/><circle cx="674.9" cy="478.8" r="411.6" fill="none" stroke="hsl(26 46% 30%)" stroke-width="1.03" opacity="0.264"/><circle cx="674.9" cy="478.8" r="655.3" fill="none" stroke="hsl(26 46% 30%)" stroke-width="1.80" opacity="0.319"/><circle cx="674.9" cy="478.8" r="491.0" fill="none" stroke="hsl(26 46% 30%)" stroke-width="1.94" opacity="0.351"/><circle cx="674.9" cy="478.8" r="714.0" fill="none" stroke="hsl(26 46% 30%)" stroke-width="2.23" opacity="0.301"/><line x1="195.7" y1="615.8" x2="861.9" y2="594.3" stroke="hsl(26 46% 30%)" stroke-width="2.75" opacity="0.214"/><line x1="580.1" y1="380.9" x2="1104.6" y2="369.3" stroke="hsl(26 46% 30%)" stroke-width="1.94" opacity="0.417"/><line x1="328.3" y1="464.8" x2="1174.4" y2="429.9" stroke="hsl(26 46% 30%)" stroke-width="2.46" opacity="0.388"/><line x1="204.8" y1="209.9" x2="1056.7" y2="199.4" stroke="hsl(26 46% 30%)" stroke-width="2.67" opacity="0.234"/><line x1="409.5" y1="460.6" x2="864.7" y2="453.8" stroke="hsl(26 46% 30%)" stroke-width="1.33" opacity="0.354"/><circle cx="542.0" cy="730.3" r="3.1" fill="hsl(26 46% 30%)" opacity="0.344"/><circle cx="822.8" cy="644.7" r="4.1" fill="hsl(26 46% 30%)" opacity="0.602"/><circle cx="489.9" cy="721.7" r="6.9" fill="hsl(26 46% 30%)" opacity="0.541"/><circle cx="629.4" cy="304.2" r="3.0" fill="hsl(26 46% 30%)" opacity="0.506"/><circle cx="258.4" cy="18.5" r="5.1" fill="hsl(26 46% 30%)" opacity="0.512"/><circle cx="133.3" cy="33.3" r="5.2" fill="hsl(26 46% 30%)" opacity="0.400"/><circle cx="786.0" cy="226.8" r="6.2" fill="hsl(26 46% 30%)" opacity="0.376"/><circle cx="179.8" cy="309.3" r="5.5" fill="hsl(26 46% 30%)" opacity="0.339"/><circle cx="403.0" cy="672.7" r="6.1" fill="hsl(26 46% 30%)" opacity="0.520"/><circle cx="106.2" cy="295.8" r="5.0" fill="hsl(26 46% 30%)" opacity="0.400"/><circle cx="295.6" cy="257.1" r="4.3" fill="hsl(26 46% 30%)" opacity="0.572"/><circle cx="1040.6" cy="690.7" r="6.1" fill="hsl(26 46% 30%)" opacity="0.462"/><circle cx="1180.7" cy="506.3" r="3.8" fill="hsl(26 46% 30%)" opacity="0.592"/><circle cx="1090.2" cy="65.5" r="4.9" fill="hsl(26 46% 30%)" opacity="0.396"/><circle cx="88.8" cy="379.2" r="2.9" fill="hsl(26 46% 30%)" opacity="0.573"/></g>
</svg>
