<svg xmlns="http://www.w3.org/2000/svg" viewBox="0 0 1200 750" width="1200" height="750" role="img" aria-label="">
  <defs>
    <linearGradient id="g" x1="0" y1="0" x2="1" y2="1">
      <stop offset="0" stop-color="hsl(177 32% 94%)"/>
      <stop offset="1" stop-color="hsl(195 30% 86%)"/>
    </linearGradient>
    <clipPath id="c"><rect width="1200" height="750"/></clipPath>
  </defs>
  <rect width="1200" height="750" fill="url(#g)"/>
  <g clip-path="url(#c)"><circle cx="545.6" cy="317.7" r="60.0" fill="none" stroke="hsl(177 34% 42%)" stroke-width="1.78" opacity="0.117"/><circle cx="545.6" cy="317.7" r="145.1" fill="none" stroke="hsl(177 34% 42%)" stroke-width="1.25" opacity="0.184"/><circle cx="545.6" cy="317.7" r="200.8" fill="none" stroke="hsl(177 34% 42%)" stroke-width="1.17" opacity="0.082"/><circle cx="545.6" cy="317.7" r="322.6" fill="none" stroke="hsl(177 34% 42%)" stroke-width="2.02" opacity="0.139"/><circle cx="545.6" cy="317.7" r="348.9" fill="none" stroke="hsl(177 34% 42%)" stroke-width="1.99" opacity="0.162"/><line x1="386.1" y1="354.5" x2="1259.9" y2="352.0" stroke="hsl(177 34% 42%)" stroke-width="1.25" opacity="0.126"/><line x1="41.1" y1="303.7" x2="928.5" y2="325.3" stroke="hsl(177 34% 42%)" stroke-width="1.25" opacity="0.206"/><line x1="315.5" y1="386.1" x2="1179.9" y2="368.8" stroke="hsl(177 34% 42%)" stroke-width="1.25" opacity="0.168"/><line x1="183.7" y1="578.7" x2="610.3" y2="618.3" stroke="hsl(177 34% 42%)" stroke-width="1.25" opacity="0.120"/><line x1="534.0" y1="310.5" x2="968.0" y2="266.8" stroke="hsl(177 34% 42%)" stroke-width="1.25" opacity="0.214"/><circle cx="526.9" cy="107.6" r="4.6" fill="hsl(177 34% 42%)" opacity="0.249"/><circle cx="1028.4" cy="462.3" r="4.7" fill="hsl(177 34% 42%)" opacity="0.142"/><circle cx="144.3" cy="622.4" r="4.4" fill="hsl(177 34% 42%)" opacity="0.166"/><circle cx="422.8" cy="434.0" r="2.9" fill="hsl(177 34% 42%)" opacity="0.230"/><circle cx="1182.4" cy="9.6" r="2.9" fill="hsl(177 34% 42%)" opacity="0.175"/><circle cx="1029.1" cy="203.0" r="7.5" fill="hsl(177 34% 42%)" opacity="0.205"/><circle cx="229.7" cy="445.0" r="6.8" fill="hsl(177 34% 42%)" opacity="0.338"/></g>
</svg>
