<svg xmlns="http://www.w3.org/2000/svg" viewBox="0 0 1200 750" width="1200" height="750" role="img" aria-label="">
  <defs>
    <linearGradient id="g" x1="0" y1="0" x2="1" y2="1">
      <stop offset="0" stop-color="hsl(123 32% 94%)"/>
      <stop offset="1" stop-color="hsl(141 30% 86%)"/>
    </linearGradient>
    <clipPath id="c"><rect width="1200" height="750"/></clipPath>
  </defs>
  <rect width="1200" height="750" fill="url(#g)"/>
  <g clip-path="url(#c)"><circle cx="339.3" cy="323.6" r="60.0" fill="none" stroke="hsl(123 34% 42%)" stroke-width="2.15" opacity="0.182"/><circle cx="339.3" cy="323.6" r="155.8" fill="none" stroke="hsl(123 34% 42%)" stroke-width="1.23" opacity="0.095"/><circle cx="339.3" cy="323.6" r="200.4" fill="none" stroke="hsl(123 34% 42%)" stroke-width="1.27" opacity="0.089"/><circle cx="339.3" cy="323.6" r="267.2" fill="none" stroke="hsl(123 34% 42%)" stroke-width="1.33" opacity="0.102"/><circle cx="339.3" cy="323.6" r="345.5" fill="none" stroke="hsl(123 34% 42%)" stroke-width="1.13" opacity="0.154"/><line x1="71.0" y1="229.6" x2="661.3" y2="207.7" stroke="hsl(123 34% 42%)" stroke-width="1.25" opacity="0.106"/><line x1="364.1" y1="619.9" x2="1253.1" y2="612.9" stroke="hsl(123 34% 42%)" stroke-width="1.25" opacity="0.150"/><line x1="312.1" y1="348.5" x2="683.5" y2="371.8" stroke="hsl(123 34% 42%)" stroke-width="1.25" opacity="0.214"/><line x1="459.8" y1="551.8" x2="1078.8" y2="550.8" stroke="hsl(123 34% 42%)" stroke-width="1.25" opacity="0.132"/><line x1="457.3" y1="384.9" x2="1048.7" y2="405.7" stroke="hsl(123 34% 42%)" stroke-width="1.25" opacity="0.181"/><circle cx="223.3" cy="346.4" r="3.9" fill="hsl(123 34% 42%)" opacity="0.259"/><circle cx="753.6" cy="174.7" r="5.5" fill="hsl(123 34% 42%)" opacity="0.322"/><circle cx="680.9" cy="87.0" r="5.5" fill="hsl(123 34% 42%)" opacity="0.246"/><circle cx="749.0" cy="142.9" r="4.4" fill="hsl(123 34% 42%)" opacity="0.334"/><circle cx="915.4" cy="289.2" r="5.4" fill="hsl(123 34% 42%)" opacity="0.305"/><circle cx="1069.8" cy="649.9" r="5.7" fill="hsl(123 34% 42%)" opacity="0.201"/><circle cx="363.5" cy="143.0" r="2.8" fill="hsl(123 34% 42%)" opacity="0.221"/><circle cx="49.3" cy="29.5" r="4.5" fill="hsl(123 34% 42%)" opacity="0.160"/><circle cx="169.0" cy="688.1" r="7.3" fill="hsl(123 34% 42%)" opacity="0.230"/><circle cx="33.2" cy="361.4" r="5.6" fill="hsl(123 34% 42%)" opacity="0.232"/></g>
</svg>
